<svg xmlns="http://www.w3.org/2000/svg" width="20" height="20" viewBox="0 0 20 20">
    <path fill="#23408d" fill-rule="evenodd" d="M14.121 11.233h2.768a.766.766 0 0 0 0-1.531h-2.768a.766.766 0 0 0 0 1.531zm6.055-5.306a1.687 1.687 0 0 1 1.409.684 2.207 2.207 0 0 1 .38 1.754l-.949 6.695a2.568 2.568 0 0 1-2.528 2.235H7.586a2.568 2.568 0 0 1-2.538-2.387L4.129 3.783 2.62 3.518a.766.766 0 0 1 .26-1.509l2.383.366a.765.765 0 0 1 .62.694l.19 2.286a.615.615 0 0 0 .61.573zM7.426 18.908a1.547 1.547 0 1 0 1.509 1.551 1.535 1.535 0 0 0-1.509-1.551zm11.241 0a1.547 1.547 0 1 0 1.509 1.551 1.535 1.535 0 0 0-1.508-1.551z" transform="translate(-2 -2)"/>
</svg>
