<svg xmlns="http://www.w3.org/2000/svg" width="30" height="30" viewBox="0 0 30 30">
  <defs>
    <style>
      .cls-1 {
        fill: #23408d;
      }

      .cls-2 {
        fill: #fff;
      }
    </style>
  </defs>
  <g id="cart" transform="translate(-976 -29)">
    <circle id="Ellipse_29" data-name="Ellipse 29" class="cls-1" cx="15" cy="15" r="15" transform="translate(976 29)"/>
    <path id="Path_598" data-name="Path 598" class="cls-2" d="M3.639,13.472V3.639H2V2H4.458a.819.819,0,0,1,.819.819v9.833H15.47L17.109,6.1H6.917V4.458H18.159a.819.819,0,0,1,.795,1.019l-2.049,8.194a.82.82,0,0,1-.795.62H4.458a.819.819,0,0,1-.819-.819Zm1.639,5.736a1.639,1.639,0,1,1,1.159-.48A1.639,1.639,0,0,1,5.278,19.208Zm9.833,0a1.639,1.639,0,1,1,1.159-.48A1.639,1.639,0,0,1,15.111,19.208Z" transform="translate(980.555 33.556)"/>
  </g>
</svg>
