<svg xmlns="http://www.w3.org/2000/svg" width="57.885" height="50.907" viewBox="0 0 57.885 50.907">
    <defs>
        <style>
            .cls-1{fill:#1e0478}
        </style>
    </defs>
    <g id="checked" transform="translate(0 -30.86)">
        <path id="Path_74" d="M111.874 47.932a6.04 6.04 0 0 1 0 8.532l-27.99 27.99a4 4 0 0 1-5.654 0L64.625 70.849a6.033 6.033 0 0 1 8.532-8.532l7.9 7.9 22.285-22.283a6.039 6.039 0 0 1 8.532 0zm-2.187 6.346a2.941 2.941 0 1 0-4.159-4.159l-22.51 22.51a2.772 2.772 0 0 1-3.921 0L70.971 64.5a2.941 2.941 0 0 0-4.159 4.159l13.605 13.608a.907.907 0 0 0 1.281 0z" class="cls-1" transform="translate(-55.754 -13.576)"/>
        <path id="Path_75" fill="#94e7ef" d="M133.942 74.376a2.945 2.945 0 0 1 0 4.159l-27.99 27.99a.907.907 0 0 1-1.281 0L91.067 92.919a2.941 2.941 0 0 1 4.159-4.159l8.127 8.126a2.772 2.772 0 0 0 3.921 0l22.51-22.51a2.945 2.945 0 0 1 4.158 0z" transform="translate(-80.009 -37.834)"/>
        <path id="Path_76" d="M50.844 54.487c.043.6.065 1.214.065 1.827A25.454 25.454 0 1 1 25.455 30.86a25.224 25.224 0 0 1 15.268 5.088 1.546 1.546 0 0 1-1.858 2.473 22.156 22.156 0 0 0-13.41-4.468 22.36 22.36 0 1 0 22.36 22.36c0-.538-.02-1.078-.057-1.6a1.547 1.547 0 1 1 3.085-.223z" class="cls-1"/>
    </g>
</svg>
