<svg xmlns="http://www.w3.org/2000/svg" width="17.845" height="16.223" viewBox="0 0 17.845 16.223">
    <defs>
        <style>
            .cls-1{fill:#004dda}
        </style>
    </defs>
    <g id="Layer">
        <g id="Vrstva_98" data-name="Vrstva 98">
            <path id="Union_2" d="M150.289-1787.4a2.433 2.433 0 0 1-2.434-2.434v-9.734a2.433 2.433 0 0 1 2.434-2.434h.811v-.811a.811.811 0 0 1 .811-.812.812.812 0 0 1 .812.812v.811h8.111v-.811a.812.812 0 0 1 .811-.812.812.812 0 0 1 .812.812v.811h.811a2.433 2.433 0 0 1 2.434 2.434v9.734a2.434 2.434 0 0 1-2.434 2.434zm-.812-2.434a.811.811 0 0 0 .812.811h12.978a.81.81 0 0 0 .811-.811v-7.3h-14.6zm0-9.734v.811h14.6v-.811a.811.811 0 0 0-.811-.812h-12.977a.812.812 0 0 0-.812.814zm6.478 6.489a.8.8 0 0 1-.8-.8v-.833a.8.8 0 0 1 .8-.8h.833a.8.8 0 0 1 .8.8v.833a.8.8 0 0 1-.8.8zm-4.055 0a.8.8 0 0 1-.8-.8v-.833a.8.8 0 0 1 .8-.8h.833a.8.8 0 0 1 .8.8v.833a.8.8 0 0 1-.8.8z" class="cls-1" data-name="Union 2" transform="translate(-147.856 1803.622)"/>
        </g>
    </g>
</svg>
