<svg xmlns="http://www.w3.org/2000/svg" id="Layer" width="20.938" height="16.052" viewBox="0 0 20.938 16.052">
    <defs>
        <style>
            .cls-1{fill:#2e2e2e}
        </style>
    </defs>
    <path id="menu" d="M.951 16.052a1.052 1.052 0 0 1 0-2.094h19.035a1.052 1.052 0 0 1 0 2.094zm0-6.98A1 1 0 0 1 0 8.026 1 1 0 0 1 .951 6.98h19.035a1 1 0 0 1 .952 1.046 1 1 0 0 1-.952 1.046zm0-6.978A1 1 0 0 1 0 1.046 1 1 0 0 1 .951 0h19.035a1 1 0 0 1 .952 1.046 1 1 0 0 1-.952 1.048z" class="cls-1"/>
</svg>
