<svg xmlns="http://www.w3.org/2000/svg" width="11.849" height="16.25" viewBox="0 0 11.849 16.25">
    <defs>
        <style>
            .cls-1{fill:#004dda}
        </style>
    </defs>
    <g id="Layer">
        <g id="Vrstva_146" data-name="Vrstva 146">
            <path id="Union_1" d="M151.762-1729.862a50.085 50.085 0 0 1-2.862-4.048 23.454 23.454 0 0 1-1.631-2.92 7.087 7.087 0 0 1-.742-2.765 6.031 6.031 0 0 1 1.676-4.316 6.029 6.029 0 0 1 4.24-1.859 6.034 6.034 0 0 1 5.931 6.13 7.09 7.09 0 0 1-.742 2.766 23.213 23.213 0 0 1-1.616 2.965 49.851 49.851 0 0 1-2.861 4.048.882.882 0 0 1-.7.341.881.881 0 0 1-.693-.342zm.7-14.382a4.552 4.552 0 0 0-4.448 4.648 5.755 5.755 0 0 0 .623 2.157 22.284 22.284 0 0 0 1.519 2.75c.823 1.341 1.742 2.579 2.306 3.321.563-.749 1.482-1.98 2.3-3.284a22.192 22.192 0 0 0 1.52-2.832 5.767 5.767 0 0 0 .623-2.157 4.551 4.551 0 0 0-4.448-4.648zm-1.483 4.448a1.483 1.483 0 0 1 1.483-1.482 1.482 1.482 0 0 1 1.482 1.482 1.483 1.483 0 0 1-1.482 1.483 1.483 1.483 0 0 1-1.487-1.487z" class="cls-1" data-name="Union 1" transform="translate(-146.526 1745.771)"/>
        </g>
    </g>
</svg>
