<svg xmlns="http://www.w3.org/2000/svg" width="18" height="17" viewBox="0 0 14.67 13.667">
    <defs>
        <style>
            .cls-1{fill:#23408D}
        </style>
    </defs>
    <path id="Union_4" d="M-943.33 55.333a1 1 0 0 1 1-1 1 1 0 0 1 1 1 1 1 0 0 1-1 1 1 1 0 0 1-1-1zm-5 0a1 1 0 0 1 1-1 1 1 0 0 1 1 1 1 1 0 0 1-1 1 1 1 0 0 1-.999-1zm-.555-2a.793.793 0 0 1-.78-.666l-1.335-6.52-.512-2.147H-953a.666.666 0 0 1-.666-.667.666.666 0 0 1 .666-.667h1.9a.808.808 0 0 1 .767.607l.526 2.06h10a.8.8 0 0 1 .6.26.8.8 0 0 1 .206.62l-.667 6.4a.794.794 0 0 1-.78.72zm.44-1.333h7.52l.534-5.333h-9.121z" class="cls-1" data-name="Union 4" transform="translate(953.664 -42.666)"/>
</svg>
